<mxfile host="app.diagrams.net" modified="2024-02-09T05:44:12.949Z" agent="Mozilla/5.0 (Windows NT 10.0; Win64; x64) AppleWebKit/537.36 (KHTML, like Gecko) Chrome/121.0.0.0 Safari/537.36" etag="phc4n_y1rZLcl_ZpLMvJ" version="22.1.21" type="google">
  <diagram name="PÃ¡gina-1" id="Jv_WStt08cTeYdabsN60">
    <mxGraphModel dx="880" dy="468" grid="1" gridSize="10" guides="1" tooltips="1" connect="1" arrows="1" fold="1" page="1" pageScale="1" pageWidth="1654" pageHeight="2336" math="0" shadow="0">
      <root>
        <mxCell id="0" />
        <mxCell id="1" parent="0" />
        <mxCell id="It8qVt5NhBERKHaMr5VO-2" value="Cuenta" style="whiteSpace=wrap;html=1;align=center;" vertex="1" parent="1">
          <mxGeometry x="770" y="480" width="100" height="40" as="geometry" />
        </mxCell>
        <mxCell id="It8qVt5NhBERKHaMr5VO-3" value="Cliente" style="whiteSpace=wrap;html=1;align=center;" vertex="1" parent="1">
          <mxGeometry x="170" y="480" width="100" height="40" as="geometry" />
        </mxCell>
        <mxCell id="It8qVt5NhBERKHaMr5VO-4" value="&lt;u&gt;Numero de cuenta&lt;/u&gt;" style="ellipse;whiteSpace=wrap;html=1;align=center;" vertex="1" parent="1">
          <mxGeometry x="690" y="390" width="110" height="40" as="geometry" />
        </mxCell>
        <mxCell id="It8qVt5NhBERKHaMr5VO-5" value="Fecha de apertura" style="ellipse;whiteSpace=wrap;html=1;align=center;" vertex="1" parent="1">
          <mxGeometry x="820" y="370" width="100" height="40" as="geometry" />
        </mxCell>
        <mxCell id="It8qVt5NhBERKHaMr5VO-6" value="Saldo" style="ellipse;whiteSpace=wrap;html=1;align=center;" vertex="1" parent="1">
          <mxGeometry x="940" y="370" width="100" height="40" as="geometry" />
        </mxCell>
        <mxCell id="It8qVt5NhBERKHaMr5VO-7" value="" style="endArrow=none;html=1;rounded=0;entryX=1;entryY=0;entryDx=0;entryDy=0;exitX=0.61;exitY=1;exitDx=0;exitDy=0;exitPerimeter=0;" edge="1" parent="1" source="It8qVt5NhBERKHaMr5VO-6" target="It8qVt5NhBERKHaMr5VO-2">
          <mxGeometry width="50" height="50" relative="1" as="geometry">
            <mxPoint x="710" y="610" as="sourcePoint" />
            <mxPoint x="760" y="560" as="targetPoint" />
          </mxGeometry>
        </mxCell>
        <mxCell id="It8qVt5NhBERKHaMr5VO-8" value="" style="endArrow=none;html=1;rounded=0;exitX=0.44;exitY=0.025;exitDx=0;exitDy=0;exitPerimeter=0;entryX=0.5;entryY=1;entryDx=0;entryDy=0;" edge="1" parent="1" source="It8qVt5NhBERKHaMr5VO-2" target="It8qVt5NhBERKHaMr5VO-4">
          <mxGeometry width="50" height="50" relative="1" as="geometry">
            <mxPoint x="830" y="460" as="sourcePoint" />
            <mxPoint x="880" y="410" as="targetPoint" />
          </mxGeometry>
        </mxCell>
        <mxCell id="It8qVt5NhBERKHaMr5VO-9" value="" style="endArrow=none;html=1;rounded=0;exitX=0.65;exitY=0;exitDx=0;exitDy=0;exitPerimeter=0;entryX=0.26;entryY=0.925;entryDx=0;entryDy=0;entryPerimeter=0;" edge="1" parent="1" source="It8qVt5NhBERKHaMr5VO-2" target="It8qVt5NhBERKHaMr5VO-5">
          <mxGeometry width="50" height="50" relative="1" as="geometry">
            <mxPoint x="850" y="480" as="sourcePoint" />
            <mxPoint x="900" y="430" as="targetPoint" />
          </mxGeometry>
        </mxCell>
        <mxCell id="It8qVt5NhBERKHaMr5VO-10" value="Nombres" style="ellipse;whiteSpace=wrap;html=1;align=center;" vertex="1" parent="1">
          <mxGeometry x="105" y="390" width="100" height="40" as="geometry" />
        </mxCell>
        <mxCell id="It8qVt5NhBERKHaMr5VO-11" value="Apellido Paterno" style="ellipse;whiteSpace=wrap;html=1;align=center;" vertex="1" parent="1">
          <mxGeometry x="140" y="310" width="100" height="40" as="geometry" />
        </mxCell>
        <mxCell id="It8qVt5NhBERKHaMr5VO-12" value="Apellido Materno" style="ellipse;whiteSpace=wrap;html=1;align=center;" vertex="1" parent="1">
          <mxGeometry x="10" y="310" width="100" height="40" as="geometry" />
        </mxCell>
        <mxCell id="It8qVt5NhBERKHaMr5VO-13" value="" style="endArrow=none;html=1;rounded=0;exitX=0.5;exitY=0;exitDx=0;exitDy=0;entryX=0.5;entryY=1;entryDx=0;entryDy=0;" edge="1" parent="1" source="It8qVt5NhBERKHaMr5VO-3" target="It8qVt5NhBERKHaMr5VO-10">
          <mxGeometry width="50" height="50" relative="1" as="geometry">
            <mxPoint x="180" y="490" as="sourcePoint" />
            <mxPoint x="230" y="440" as="targetPoint" />
          </mxGeometry>
        </mxCell>
        <mxCell id="It8qVt5NhBERKHaMr5VO-14" value="" style="endArrow=none;html=1;rounded=0;entryX=0.5;entryY=1;entryDx=0;entryDy=0;exitX=0.5;exitY=0;exitDx=0;exitDy=0;" edge="1" parent="1" source="It8qVt5NhBERKHaMr5VO-10" target="It8qVt5NhBERKHaMr5VO-11">
          <mxGeometry width="50" height="50" relative="1" as="geometry">
            <mxPoint x="120" y="410" as="sourcePoint" />
            <mxPoint x="170" y="360" as="targetPoint" />
          </mxGeometry>
        </mxCell>
        <mxCell id="It8qVt5NhBERKHaMr5VO-15" value="" style="endArrow=none;html=1;rounded=0;entryX=0.5;entryY=1;entryDx=0;entryDy=0;exitX=0.23;exitY=0.1;exitDx=0;exitDy=0;exitPerimeter=0;" edge="1" parent="1" source="It8qVt5NhBERKHaMr5VO-10" target="It8qVt5NhBERKHaMr5VO-12">
          <mxGeometry width="50" height="50" relative="1" as="geometry">
            <mxPoint x="60" y="450" as="sourcePoint" />
            <mxPoint x="110" y="400" as="targetPoint" />
          </mxGeometry>
        </mxCell>
        <mxCell id="It8qVt5NhBERKHaMr5VO-16" value="Direccion" style="ellipse;whiteSpace=wrap;html=1;align=center;" vertex="1" parent="1">
          <mxGeometry x="290" y="390" width="100" height="40" as="geometry" />
        </mxCell>
        <mxCell id="It8qVt5NhBERKHaMr5VO-17" value="" style="endArrow=none;html=1;rounded=0;entryX=0.37;entryY=1;entryDx=0;entryDy=0;entryPerimeter=0;exitX=0.65;exitY=0;exitDx=0;exitDy=0;exitPerimeter=0;" edge="1" parent="1" source="It8qVt5NhBERKHaMr5VO-3" target="It8qVt5NhBERKHaMr5VO-16">
          <mxGeometry width="50" height="50" relative="1" as="geometry">
            <mxPoint x="200" y="490" as="sourcePoint" />
            <mxPoint x="250" y="440" as="targetPoint" />
          </mxGeometry>
        </mxCell>
        <mxCell id="It8qVt5NhBERKHaMr5VO-18" value="" style="endArrow=none;html=1;rounded=0;entryX=0.25;entryY=1;entryDx=0;entryDy=0;exitX=0.5;exitY=0;exitDx=0;exitDy=0;" edge="1" parent="1" source="It8qVt5NhBERKHaMr5VO-25" target="It8qVt5NhBERKHaMr5VO-3">
          <mxGeometry width="50" height="50" relative="1" as="geometry">
            <mxPoint x="150" y="600" as="sourcePoint" />
            <mxPoint x="190" y="560" as="targetPoint" />
          </mxGeometry>
        </mxCell>
        <mxCell id="It8qVt5NhBERKHaMr5VO-19" value="Calle" style="ellipse;whiteSpace=wrap;html=1;align=center;" vertex="1" parent="1">
          <mxGeometry x="280" y="300" width="100" height="40" as="geometry" />
        </mxCell>
        <mxCell id="It8qVt5NhBERKHaMr5VO-20" value="Colonia" style="ellipse;whiteSpace=wrap;html=1;align=center;" vertex="1" parent="1">
          <mxGeometry x="400" y="300" width="100" height="40" as="geometry" />
        </mxCell>
        <mxCell id="It8qVt5NhBERKHaMr5VO-21" value="Codigo Postal" style="ellipse;whiteSpace=wrap;html=1;align=center;" vertex="1" parent="1">
          <mxGeometry x="420" y="350" width="100" height="40" as="geometry" />
        </mxCell>
        <mxCell id="It8qVt5NhBERKHaMr5VO-22" value="" style="endArrow=none;html=1;rounded=0;exitX=0.5;exitY=0;exitDx=0;exitDy=0;entryX=0.5;entryY=1;entryDx=0;entryDy=0;" edge="1" parent="1" source="It8qVt5NhBERKHaMr5VO-16" target="It8qVt5NhBERKHaMr5VO-19">
          <mxGeometry width="50" height="50" relative="1" as="geometry">
            <mxPoint x="330" y="390" as="sourcePoint" />
            <mxPoint x="380" y="340" as="targetPoint" />
          </mxGeometry>
        </mxCell>
        <mxCell id="It8qVt5NhBERKHaMr5VO-23" value="" style="endArrow=none;html=1;rounded=0;entryX=0.5;entryY=1;entryDx=0;entryDy=0;" edge="1" parent="1" source="It8qVt5NhBERKHaMr5VO-16" target="It8qVt5NhBERKHaMr5VO-20">
          <mxGeometry width="50" height="50" relative="1" as="geometry">
            <mxPoint x="420" y="420" as="sourcePoint" />
            <mxPoint x="470" y="370" as="targetPoint" />
          </mxGeometry>
        </mxCell>
        <mxCell id="It8qVt5NhBERKHaMr5VO-24" value="" style="endArrow=none;html=1;rounded=0;entryX=0.5;entryY=1;entryDx=0;entryDy=0;entryPerimeter=0;exitX=1;exitY=0.5;exitDx=0;exitDy=0;" edge="1" parent="1" source="It8qVt5NhBERKHaMr5VO-16" target="It8qVt5NhBERKHaMr5VO-21">
          <mxGeometry width="50" height="50" relative="1" as="geometry">
            <mxPoint x="500" y="420" as="sourcePoint" />
            <mxPoint x="550" y="370" as="targetPoint" />
          </mxGeometry>
        </mxCell>
        <mxCell id="It8qVt5NhBERKHaMr5VO-25" value="&lt;u&gt;ID&lt;/u&gt;" style="ellipse;whiteSpace=wrap;html=1;align=center;" vertex="1" parent="1">
          <mxGeometry x="60" y="580" width="100" height="40" as="geometry" />
        </mxCell>
        <mxCell id="It8qVt5NhBERKHaMr5VO-26" value="Fecha de nacimiento" style="ellipse;whiteSpace=wrap;html=1;align=center;" vertex="1" parent="1">
          <mxGeometry x="170" y="590" width="100" height="40" as="geometry" />
        </mxCell>
        <mxCell id="It8qVt5NhBERKHaMr5VO-27" value="" style="endArrow=none;html=1;rounded=0;entryX=0.5;entryY=1;entryDx=0;entryDy=0;exitX=0.5;exitY=0;exitDx=0;exitDy=0;" edge="1" parent="1" source="It8qVt5NhBERKHaMr5VO-26" target="It8qVt5NhBERKHaMr5VO-3">
          <mxGeometry width="50" height="50" relative="1" as="geometry">
            <mxPoint x="190" y="610" as="sourcePoint" />
            <mxPoint x="240" y="560" as="targetPoint" />
          </mxGeometry>
        </mxCell>
        <mxCell id="It8qVt5NhBERKHaMr5VO-28" value="Edad" style="ellipse;whiteSpace=wrap;html=1;align=center;dashed=1;" vertex="1" parent="1">
          <mxGeometry x="280" y="590" width="100" height="40" as="geometry" />
        </mxCell>
        <mxCell id="It8qVt5NhBERKHaMr5VO-29" value="" style="endArrow=none;html=1;rounded=0;exitX=0.5;exitY=0;exitDx=0;exitDy=0;" edge="1" parent="1" source="It8qVt5NhBERKHaMr5VO-28" target="It8qVt5NhBERKHaMr5VO-3">
          <mxGeometry width="50" height="50" relative="1" as="geometry">
            <mxPoint x="280" y="600" as="sourcePoint" />
            <mxPoint x="220" y="540" as="targetPoint" />
          </mxGeometry>
        </mxCell>
        <mxCell id="It8qVt5NhBERKHaMr5VO-30" value="Tiene" style="shape=rhombus;perimeter=rhombusPerimeter;whiteSpace=wrap;html=1;align=center;" vertex="1" parent="1">
          <mxGeometry x="490" y="470" width="120" height="60" as="geometry" />
        </mxCell>
        <mxCell id="It8qVt5NhBERKHaMr5VO-32" value="" style="endArrow=none;html=1;rounded=0;exitX=1;exitY=0.5;exitDx=0;exitDy=0;" edge="1" parent="1" source="It8qVt5NhBERKHaMr5VO-3" target="It8qVt5NhBERKHaMr5VO-30">
          <mxGeometry width="50" height="50" relative="1" as="geometry">
            <mxPoint x="360" y="520" as="sourcePoint" />
            <mxPoint x="420" y="520" as="targetPoint" />
          </mxGeometry>
        </mxCell>
        <mxCell id="It8qVt5NhBERKHaMr5VO-36" value="" style="endArrow=none;html=1;rounded=0;entryX=0;entryY=0.5;entryDx=0;entryDy=0;" edge="1" parent="1" source="It8qVt5NhBERKHaMr5VO-37" target="It8qVt5NhBERKHaMr5VO-3">
          <mxGeometry width="50" height="50" relative="1" as="geometry">
            <mxPoint x="100" y="500" as="sourcePoint" />
            <mxPoint x="110" y="480" as="targetPoint" />
          </mxGeometry>
        </mxCell>
        <mxCell id="It8qVt5NhBERKHaMr5VO-37" value="ContraseÃ±a" style="ellipse;whiteSpace=wrap;html=1;align=center;" vertex="1" parent="1">
          <mxGeometry x="5" y="480" width="100" height="40" as="geometry" />
        </mxCell>
        <mxCell id="It8qVt5NhBERKHaMr5VO-38" value="" style="endArrow=none;html=1;rounded=0;exitX=1;exitY=0.5;exitDx=0;exitDy=0;entryX=0;entryY=0.5;entryDx=0;entryDy=0;" edge="1" parent="1" source="It8qVt5NhBERKHaMr5VO-30" target="It8qVt5NhBERKHaMr5VO-2">
          <mxGeometry width="50" height="50" relative="1" as="geometry">
            <mxPoint x="590" y="480" as="sourcePoint" />
            <mxPoint x="640" y="430" as="targetPoint" />
          </mxGeometry>
        </mxCell>
        <mxCell id="It8qVt5NhBERKHaMr5VO-39" value="" style="endArrow=none;html=1;rounded=0;exitX=1;exitY=0.5;exitDx=0;exitDy=0;entryX=0;entryY=0.5;entryDx=0;entryDy=0;" edge="1" parent="1" source="It8qVt5NhBERKHaMr5VO-41" target="It8qVt5NhBERKHaMr5VO-40">
          <mxGeometry width="50" height="50" relative="1" as="geometry">
            <mxPoint x="960" y="550" as="sourcePoint" />
            <mxPoint x="1120" y="500" as="targetPoint" />
          </mxGeometry>
        </mxCell>
        <mxCell id="It8qVt5NhBERKHaMr5VO-40" value="Transacciones" style="whiteSpace=wrap;html=1;align=center;" vertex="1" parent="1">
          <mxGeometry x="1240" y="480" width="100" height="40" as="geometry" />
        </mxCell>
        <mxCell id="It8qVt5NhBERKHaMr5VO-42" value="" style="endArrow=none;html=1;rounded=0;exitX=1;exitY=0.5;exitDx=0;exitDy=0;entryX=0;entryY=0.5;entryDx=0;entryDy=0;" edge="1" parent="1" source="It8qVt5NhBERKHaMr5VO-2" target="It8qVt5NhBERKHaMr5VO-41">
          <mxGeometry width="50" height="50" relative="1" as="geometry">
            <mxPoint x="870" y="500" as="sourcePoint" />
            <mxPoint x="1200" y="500" as="targetPoint" />
          </mxGeometry>
        </mxCell>
        <mxCell id="It8qVt5NhBERKHaMr5VO-41" value="Realiza" style="shape=rhombus;perimeter=rhombusPerimeter;whiteSpace=wrap;html=1;align=center;" vertex="1" parent="1">
          <mxGeometry x="990" y="470" width="120" height="60" as="geometry" />
        </mxCell>
        <mxCell id="It8qVt5NhBERKHaMr5VO-43" value="" style="endArrow=none;html=1;rounded=0;entryX=0.5;entryY=1;entryDx=0;entryDy=0;exitX=0;exitY=0.5;exitDx=0;exitDy=0;" edge="1" parent="1" source="It8qVt5NhBERKHaMr5VO-44" target="It8qVt5NhBERKHaMr5VO-40">
          <mxGeometry width="50" height="50" relative="1" as="geometry">
            <mxPoint x="1290" y="590" as="sourcePoint" />
            <mxPoint x="1310" y="570" as="targetPoint" />
          </mxGeometry>
        </mxCell>
        <mxCell id="It8qVt5NhBERKHaMr5VO-44" value="" style="triangle;whiteSpace=wrap;html=1;rotation=90;" vertex="1" parent="1">
          <mxGeometry x="1270" y="580" width="40" height="95" as="geometry" />
        </mxCell>
        <mxCell id="It8qVt5NhBERKHaMr5VO-45" value="DT" style="text;html=1;align=center;verticalAlign=middle;resizable=0;points=[];autosize=1;strokeColor=none;fillColor=none;" vertex="1" parent="1">
          <mxGeometry x="1300" y="580" width="40" height="30" as="geometry" />
        </mxCell>
        <mxCell id="It8qVt5NhBERKHaMr5VO-48" value="" style="endArrow=none;html=1;rounded=0;entryX=0.638;entryY=0.321;entryDx=0;entryDy=0;entryPerimeter=0;exitX=0.5;exitY=0;exitDx=0;exitDy=0;" edge="1" parent="1" source="It8qVt5NhBERKHaMr5VO-52" target="It8qVt5NhBERKHaMr5VO-44">
          <mxGeometry width="50" height="50" relative="1" as="geometry">
            <mxPoint x="1350" y="680" as="sourcePoint" />
            <mxPoint x="1316" y="640" as="targetPoint" />
          </mxGeometry>
        </mxCell>
        <mxCell id="It8qVt5NhBERKHaMr5VO-49" value="Retiro sin cuenta" style="whiteSpace=wrap;html=1;align=center;" vertex="1" parent="1">
          <mxGeometry x="1140" y="720" width="100" height="40" as="geometry" />
        </mxCell>
        <mxCell id="It8qVt5NhBERKHaMr5VO-51" value="" style="endArrow=none;html=1;rounded=0;entryX=0.5;entryY=0;entryDx=0;entryDy=0;" edge="1" parent="1" source="It8qVt5NhBERKHaMr5VO-44" target="It8qVt5NhBERKHaMr5VO-49">
          <mxGeometry width="50" height="50" relative="1" as="geometry">
            <mxPoint x="1199.2893218813451" y="677.5" as="sourcePoint" />
            <mxPoint x="1230" y="670" as="targetPoint" />
          </mxGeometry>
        </mxCell>
        <mxCell id="It8qVt5NhBERKHaMr5VO-52" value="Transferencia" style="whiteSpace=wrap;html=1;align=center;" vertex="1" parent="1">
          <mxGeometry x="1370" y="720" width="100" height="40" as="geometry" />
        </mxCell>
        <mxCell id="It8qVt5NhBERKHaMr5VO-53" value="" style="endArrow=none;html=1;rounded=0;exitX=1;exitY=0.5;exitDx=0;exitDy=0;" edge="1" parent="1" source="It8qVt5NhBERKHaMr5VO-40">
          <mxGeometry width="50" height="50" relative="1" as="geometry">
            <mxPoint x="1360" y="470" as="sourcePoint" />
            <mxPoint x="1430" y="500" as="targetPoint" />
          </mxGeometry>
        </mxCell>
        <mxCell id="It8qVt5NhBERKHaMr5VO-54" value="" style="endArrow=none;html=1;rounded=0;" edge="1" parent="1">
          <mxGeometry width="50" height="50" relative="1" as="geometry">
            <mxPoint x="1340" y="480" as="sourcePoint" />
            <mxPoint x="1420" y="410" as="targetPoint" />
          </mxGeometry>
        </mxCell>
        <mxCell id="It8qVt5NhBERKHaMr5VO-55" value="" style="endArrow=none;html=1;rounded=0;exitX=0.5;exitY=0;exitDx=0;exitDy=0;" edge="1" parent="1" source="It8qVt5NhBERKHaMr5VO-40">
          <mxGeometry width="50" height="50" relative="1" as="geometry">
            <mxPoint x="1290" y="450" as="sourcePoint" />
            <mxPoint x="1290" y="410" as="targetPoint" />
          </mxGeometry>
        </mxCell>
        <mxCell id="It8qVt5NhBERKHaMr5VO-59" value="" style="endArrow=none;html=1;rounded=0;" edge="1" parent="1" source="It8qVt5NhBERKHaMr5VO-75" target="It8qVt5NhBERKHaMr5VO-49">
          <mxGeometry width="50" height="50" relative="1" as="geometry">
            <mxPoint x="1190" y="820" as="sourcePoint" />
            <mxPoint x="1220" y="800" as="targetPoint" />
          </mxGeometry>
        </mxCell>
        <mxCell id="It8qVt5NhBERKHaMr5VO-61" value="" style="endArrow=none;html=1;rounded=0;entryX=0;entryY=0.75;entryDx=0;entryDy=0;exitX=1;exitY=0.5;exitDx=0;exitDy=0;" edge="1" parent="1" source="It8qVt5NhBERKHaMr5VO-78" target="It8qVt5NhBERKHaMr5VO-49">
          <mxGeometry width="50" height="50" relative="1" as="geometry">
            <mxPoint x="1050" y="750" as="sourcePoint" />
            <mxPoint x="1080" y="780" as="targetPoint" />
          </mxGeometry>
        </mxCell>
        <mxCell id="It8qVt5NhBERKHaMr5VO-64" value="" style="endArrow=none;html=1;rounded=0;entryX=0;entryY=1;entryDx=0;entryDy=0;exitX=1;exitY=0;exitDx=0;exitDy=0;" edge="1" parent="1" target="It8qVt5NhBERKHaMr5VO-49">
          <mxGeometry width="50" height="50" relative="1" as="geometry">
            <mxPoint x="1070" y="820" as="sourcePoint" />
            <mxPoint x="1130" y="780" as="targetPoint" />
          </mxGeometry>
        </mxCell>
        <mxCell id="It8qVt5NhBERKHaMr5VO-65" value="1...N" style="text;html=1;align=center;verticalAlign=middle;resizable=0;points=[];autosize=1;strokeColor=none;fillColor=none;" vertex="1" parent="1">
          <mxGeometry x="1190" y="470" width="50" height="30" as="geometry" />
        </mxCell>
        <mxCell id="It8qVt5NhBERKHaMr5VO-67" value="" style="endArrow=none;html=1;rounded=0;entryX=1;entryY=1;entryDx=0;entryDy=0;" edge="1" parent="1" source="It8qVt5NhBERKHaMr5VO-74" target="It8qVt5NhBERKHaMr5VO-40">
          <mxGeometry width="50" height="50" relative="1" as="geometry">
            <mxPoint x="1400" y="570" as="sourcePoint" />
            <mxPoint x="1450" y="560" as="targetPoint" />
          </mxGeometry>
        </mxCell>
        <mxCell id="It8qVt5NhBERKHaMr5VO-68" value="1..1" style="text;html=1;align=center;verticalAlign=middle;resizable=0;points=[];autosize=1;strokeColor=none;fillColor=none;" vertex="1" parent="1">
          <mxGeometry x="890" y="470" width="40" height="30" as="geometry" />
        </mxCell>
        <mxCell id="It8qVt5NhBERKHaMr5VO-69" value="1:M" style="text;html=1;align=center;verticalAlign=middle;resizable=0;points=[];autosize=1;strokeColor=none;fillColor=none;" vertex="1" parent="1">
          <mxGeometry x="1030" y="440" width="40" height="30" as="geometry" />
        </mxCell>
        <mxCell id="It8qVt5NhBERKHaMr5VO-71" value="Hora" style="ellipse;whiteSpace=wrap;html=1;align=center;" vertex="1" parent="1">
          <mxGeometry x="1370" y="370" width="100" height="40" as="geometry" />
        </mxCell>
        <mxCell id="It8qVt5NhBERKHaMr5VO-72" value="Fecha" style="ellipse;whiteSpace=wrap;html=1;align=center;" vertex="1" parent="1">
          <mxGeometry x="1240" y="370" width="100" height="40" as="geometry" />
        </mxCell>
        <mxCell id="It8qVt5NhBERKHaMr5VO-73" value="ID" style="ellipse;whiteSpace=wrap;html=1;align=center;fontStyle=4;" vertex="1" parent="1">
          <mxGeometry x="1430" y="480" width="100" height="40" as="geometry" />
        </mxCell>
        <mxCell id="It8qVt5NhBERKHaMr5VO-74" value="Cantidad" style="ellipse;whiteSpace=wrap;html=1;align=center;" vertex="1" parent="1">
          <mxGeometry x="1350" y="550" width="100" height="40" as="geometry" />
        </mxCell>
        <mxCell id="It8qVt5NhBERKHaMr5VO-76" value="" style="endArrow=none;html=1;rounded=0;" edge="1" parent="1" target="It8qVt5NhBERKHaMr5VO-75">
          <mxGeometry width="50" height="50" relative="1" as="geometry">
            <mxPoint x="1190" y="820" as="sourcePoint" />
            <mxPoint x="1190" y="760" as="targetPoint" />
          </mxGeometry>
        </mxCell>
        <mxCell id="It8qVt5NhBERKHaMr5VO-75" value="Estado" style="ellipse;whiteSpace=wrap;html=1;align=center;" vertex="1" parent="1">
          <mxGeometry x="1140" y="800" width="100" height="40" as="geometry" />
        </mxCell>
        <mxCell id="It8qVt5NhBERKHaMr5VO-77" value="ContraseÃ±a" style="ellipse;whiteSpace=wrap;html=1;align=center;" vertex="1" parent="1">
          <mxGeometry x="1010" y="810" width="100" height="40" as="geometry" />
        </mxCell>
        <mxCell id="It8qVt5NhBERKHaMr5VO-78" value="Folio" style="ellipse;whiteSpace=wrap;html=1;align=center;" vertex="1" parent="1">
          <mxGeometry x="990" y="730" width="100" height="40" as="geometry" />
        </mxCell>
        <mxCell id="It8qVt5NhBERKHaMr5VO-80" value="1...N" style="text;html=1;align=center;verticalAlign=middle;resizable=0;points=[];autosize=1;strokeColor=none;fillColor=none;" vertex="1" parent="1">
          <mxGeometry x="710" y="470" width="50" height="30" as="geometry" />
        </mxCell>
        <mxCell id="It8qVt5NhBERKHaMr5VO-81" value="1...1" style="text;html=1;align=center;verticalAlign=middle;resizable=0;points=[];autosize=1;strokeColor=none;fillColor=none;" vertex="1" parent="1">
          <mxGeometry x="280" y="470" width="50" height="30" as="geometry" />
        </mxCell>
        <mxCell id="It8qVt5NhBERKHaMr5VO-82" value="1:M" style="text;html=1;align=center;verticalAlign=middle;resizable=0;points=[];autosize=1;strokeColor=none;fillColor=none;" vertex="1" parent="1">
          <mxGeometry x="530" y="440" width="40" height="30" as="geometry" />
        </mxCell>
      </root>
    </mxGraphModel>
  </diagram>
</mxfile>
